# xmcd CD database file
#
# Track frame offsets:
#	183
#	13238
#	62360
#	78418
#	96228
#	130803
#
# Disc length: 2106 seconds
#
# Revision: 2
# Processed by: cddbd v1.5.2PL0 Copyright (c) Steve Scherf et al.
# Submitted via: CDex 1.79
#
DISCID=44083806
DTITLE=Jean-Michel Jarre - Rendez-Vous
DYEAR=1986
DGENRE=Electronic
TTITLE0=First Rendez-Vous
TTITLE1=Second Rendez-Vous
TTITLE2=Third Rendez-Vous
TTITLE3=Fourth Rendez-Vous
TTITLE4=Fifth Rendez-Vous
TTITLE5=Last Rendez-Vous
EXTD=YEAR: 1986
EXTT0=
EXTT1=
EXTT2=
EXTT3=
EXTT4=
EXTT5=
PLAYORDER=
